<svg width="190" height="34"
     xmlns="http://www.w3.org/2000/svg">
    <g data-v-70b83f88="" fill="#333" class="iconlinesvg-g iconlinesvg"><g class="tp-name"><g transform="translate(0, 0)"><g
        data-gra="path-name" fill="#333" transform="scale(1)"><path
        d="M5.11 0L2.10 0L2.10-17.55L4.98-17.55L4.98-15.07Q6.94-18.08 10.35-18.08L10.35-18.08Q13.36-18.08 14.80-15.33L14.80-15.33Q14.93-15.20 14.93-15.20L14.93-15.20Q17.29-18.21 20.31-18.08L20.31-18.08Q25.68-17.69 25.81-12.05L25.81-12.05L25.81 0L22.79 0L22.79-11.27Q22.93-15.46 19.52-15.33L19.52-15.33Q15.85-14.93 15.46-10.61L15.46-10.61L15.46 0L12.45 0L12.45-12.05Q12.45-15.33 9.69-15.33L9.69-15.33Q5.24-15.07 5.11-9.56L5.11-9.56L5.11 0Z"
        transform="translate(-2.096069868995633, 24.62882096069869)"></path></g></g><g
        transform="translate(27, 0)"><g data-gra="path-name" fill="#333" transform="scale(1)"><path
        d="M8.38-3.14L8.52-3.14L13.10-17.55L16.38-17.55Q15.72-15.85 14.54-12.45L14.54-12.45Q11.66-4.45 10.09-0.39L10.09-0.39Q7.86 5.11 6.94 5.76L6.94 5.76Q6.03 6.94 3.14 6.81L3.14 6.81Q2.62 6.81 1.97 6.55L1.97 6.55L1.97 3.93Q2.10 3.93 2.23 4.06L2.23 4.06Q3.01 4.32 3.67 4.32L3.67 4.32Q5.37 4.98 6.81 0.26L6.81 0.26L0.39-17.55L3.67-17.55L8.38-3.14Z"
        transform="translate(-0.39301310043668125, 24.62882096069869)"></path></g></g><g
        transform="translate(46, 0.7120629502906635)"><g><g class="imagesvg"><g><rect fill="#333" fill-opacity="0"
                                                                                      stroke-width="2" x="0" y="0"
                                                                                      width="30.026200873362445"
                                                                                      height="30.029203793741818"
                                                                                      class="image-rect"></rect> <svg
        filter="url(#colors4272829700)" x="0" y="0" width="30.026200873362445"
        height="30.029203793741818" filtersec="colorsf6973963550" class="image-svg-svg primary"
        style="overflow: visible;"><svg xmlns="http://www.w3.org/2000/svg"
                                        viewBox="0.844390869140625 0.8348369598388672 98.31809997558594 98.32768249511719"><g
        transform="matrix(.69 0 0 .69 15.5 15.5)"><path fill="#333333"
                                                        d="M-15.65 52.89c5.88 0 13.43-.8 20.54-.5a58.7 58.7 0 0 1 20.45 4.03A138.14 138.14 0 0 1 44.4 66.2c1.64.93 3.29 1.78 4.99 2.76s3.44 1.78 5.24 2.69c3.67 1.79 7.49 3.26 11.42 4.4 4.16 1.14 8.44 1.73 12.75 1.78 4.59.06 9.18-.46 13.64-1.55a68.521 68.521 0 0 0 25.1-11.83c.94-.71 1.78-1.42 2.69-2.16.37-2.1.64-4.22.82-6.38-1.07.46-2.24.94-3.56 1.39a97.432 97.432 0 0 1-23.15 5.34c-4.09.42-8.2.54-12.31.36-3.93-.18-7.83-.67-11.68-1.46-3.69-.76-7.31-1.83-10.83-3.19-1.78-.68-3.44-1.41-5.11-2.16-1.67-.75-3.33-1.57-4.97-2.37a94.778 94.778 0 0 0-20.04-8.14 61.916 61.916 0 0 0-22.66-.84c-10.8 1.6-22.05 5.16-27.98 5.73v1.99c1.85.27 3.72.38 5.59.33z"></path><path
        fill="#333333"
        d="M33.53 35.33a90.408 90.408 0 0 1 19.91 10.19l4.63 2.92c1.55.98 3.08 1.92 4.67 2.81 3.11 1.85 6.37 3.42 9.76 4.7 3.51 1.26 7.19 2.02 10.92 2.24 3.97.24 7.96-.01 11.88-.73 7.69-1.5 15.19-3.81 22.39-6.91l3.56-1.5c0-1.78-.12-3.56-.28-5.34-.96-.14-2.03-.27-3.13-.36-5.65-.41-12.68-.18-19.47-.57-3.4-.18-6.8-.48-10.15-.93-3.35-.45-6.68-1-9.99-1.78-3.35-.72-6.64-1.66-9.87-2.81-1.61-.59-3.25-1.22-4.92-1.87l-4.97-2.14a107.46 107.46 0 0 0-21.84-7.53 67.307 67.307 0 0 0-25.81.05A75.238 75.238 0 0 0-20.5 39.69c-.09.62-.18 1.25-.25 1.78a77.033 77.033 0 0 1 30.28-8.91c8.11-.77 16.28.18 24 2.77zM50 121.25c20.97.02 40.88-9.21 54.41-25.24a71.492 71.492 0 0 1-10.9 4.9c-4.24 1.46-8.57 2.65-12.97 3.56-4.26.93-8.39 1.66-12.47 2.32s-8.12 1.21-12.2 1.53c-2.05.12-4.11.21-6.18.25s-4.19-.11-6.29-.25c-8.47-.69-16.8-2.57-24.74-5.61-7.31-2.74-14.34-6.2-20.96-10.33-3.08-1.92-6-3.72-8.73-5.66A71.3 71.3 0 0 0 50 121.25z"></path><path
        fill="#333333"
        d="M19.24 84a207.33 207.33 0 0 0 21.98 9.21c1.96.68 3.95 1.32 5.97 1.91 2.01.59 4.08 1.19 6.16 1.78 4.17 1.01 8.41 1.73 12.68 2.16 4.38.41 8.79.32 13.14-.25 4.64-.61 9.2-1.76 13.57-3.42a67.142 67.142 0 0 0 20.34-12.25c2.05-3.9 3.73-7.97 5.02-12.18l-.43.43a64.346 64.346 0 0 1-25.54 10.19c-4.57.79-9.19 1.22-13.82 1.26-4.41.04-8.82-.21-13.2-.77-4.08-.49-8.13-1.24-12.11-2.26-1.92-.5-3.81-1.05-5.66-1.6-1.85-.56-3.56-1.21-5.34-1.79-7.12-2.51-13.73-5.02-20.34-6.79-6.52-1.62-13.17-2.61-19.88-2.97-6.57-.5-13.29-.39-18.7-1.96-1.02-.28-2.02-.65-2.97-1.1.23 1.16.48 2.3.75 3.44.59.41 1.21.8 1.78 1.18 5.17 3.03 11.38 4.72 17.44 7.25 6.05 2.51 12.37 5.19 19.16 8.53zM-12.6 23.96a56.768 56.768 0 0 1 24.69-10.1 66.52 66.52 0 0 1 26.29.94c7.82 1.88 15.4 4.68 22.57 8.34l5.09 2.55 4.84 2.58c3.17 1.78 6.29 3.29 9.39 4.68a45.15 45.15 0 0 0 9.51 2.94c3.25.58 6.55.85 9.85.8 6.61 0 13.3-.89 18.54-.41.66 0 1.28.14 1.89.25-.53-2.76-1.23-5.49-2.08-8.18-4.92-3.45-10.11-6.5-15.51-9.12-2.92-1.5-5.93-2.99-9.1-4.33a84.895 84.895 0 0 0-9.92-3.56c-3.42-.94-6.96-1.78-10.69-2.69-1.82-.43-3.65-.84-5.5-1.23-1.78-.43-3.74-.84-5.63-1.21-7.8-1.68-15.75-2.64-23.72-2.87a84.819 84.819 0 0 0-25.83 3.58 65.278 65.278 0 0 0-24.42 13.84 47.369 47.369 0 0 0-4.6 4.9c-.39 1.09-.77 2.19-1.1 3.29 1.63-1.85 3.45-3.52 5.44-4.99z"></path><path
        fill="#333333"
        d="M59.42-8.93c2.12.52 4.24 1.12 6.32 1.78 2.08.66 4.15 1.53 6.18 2.39 3.99 1.75 7.87 3.73 11.63 5.93 3.67 2.07 7.12 4.08 10.37 5.86s6.34 3.38 9.28 4.86c3.56 1.78 7.04 3.56 10.15 5.47-18.03-34.97-61-48.71-95.97-30.68A71.202 71.202 0 0 0-.85.13c3.56-2.38 7.36-4.4 11.33-6.02a72.011 72.011 0 0 1 23.92-5.18c8.4-.51 16.83.21 25.02 2.14z"></path></g></svg></svg> <defs><filter
        id="colors4272829700"><feColorMatrix type="matrix"
                                             values="0 0 0 0 0.19921875  0 0 0 0 0.19921875  0 0 0 0 0.19921875  0 0 0 1 0"
                                             class="icon-fecolormatrix"></feColorMatrix></filter> <filter
        id="colorsf6973963550"><feColorMatrix type="matrix"
                                              values="0 0 0 0 0.99609375  0 0 0 0 0.99609375  0 0 0 0 0.99609375  0 0 0 1 0"
                                              class="icon-fecolormatrix"></feColorMatrix></filter> <filter
        id="colorsb447146027"><feColorMatrix type="matrix"
                                             values="0 0 0 0 0  0 0 0 0 0  0 0 0 0 0  0 0 0 1 0"
                                             class="icon-fecolormatrix"></feColorMatrix></filter></defs></g></g></g></g><g
        transform="translate(80, 0)"><g data-gra="path-name" fill="#333" transform="scale(1)"><path
        d="M16.38-11.92L16.38-11.92L16.38 0L13.49 0L13.49-10.74Q13.76-15.59 9.69-15.33L9.69-15.33Q5.24-15.07 5.11-9.56L5.11-9.56L5.11 0L2.10 0L2.10-17.55L4.98-17.55L4.98-15.07Q7.07-18.08 10.35-18.08L10.35-18.08Q16.24-17.95 16.38-11.92Z"
        transform="translate(-2.096069868995633, 24.62882096069869)"></path></g></g><g
        transform="translate(98, 0)"><g data-gra="path-name" fill="#333" transform="scale(1)"><path
        d="M2.23-23.97L5.24-23.97L5.24 0L2.23 0L2.23-23.97Z"
        transform="translate(-2.2270742358078603, 24.62882096069869)"></path></g></g><g
        transform="translate(105, 0)"><g data-gra="path-name" fill="#333" transform="scale(1)"><path
        d="M2.23-17.55L5.24-17.55L5.24 0L2.23 0L2.23-17.55ZM5.24-23.97L5.24-20.70L2.23-20.70L2.23-23.97L5.24-23.97Z"
        transform="translate(-2.2270742358078603, 24.62882096069869)"></path></g></g><g
        transform="translate(112, 0)"><g data-gra="path-name" fill="#333" transform="scale(1)"><path
        d="M16.38-11.92L16.38-11.92L16.38 0L13.49 0L13.49-10.74Q13.76-15.59 9.69-15.33L9.69-15.33Q5.24-15.07 5.11-9.56L5.11-9.56L5.11 0L2.10 0L2.10-17.55L4.98-17.55L4.98-15.07Q7.07-18.08 10.35-18.08L10.35-18.08Q16.24-17.95 16.38-11.92Z"
        transform="translate(-2.096069868995633, 24.62882096069869)"></path></g></g><g
        transform="translate(130, 0)"><g data-gra="path-name" fill="#333" transform="scale(1)"><path
        d="M14.15-5.50L14.15-5.50L17.03-5.50Q16.51-2.49 13.89-0.66L13.89-0.66Q12.45 0.26 9.17 0.26L9.17 0.26Q1.70 0 1.31-8.25L1.31-8.25Q1.57-17.82 9.69-18.08L9.69-18.08Q17.16-17.95 17.29-7.73L17.29-7.73L4.45-7.73Q4.45-1.97 9.56-1.97L9.56-1.97Q13.23-2.23 14.15-5.50ZM4.45-10.09L4.45-10.09L14.28-10.09Q13.89-15.33 9.30-15.33L9.30-15.33Q4.98-14.93 4.45-10.09Z"
        transform="translate(-1.3100436681222707, 24.62882096069869)"></path></g></g><g
        transform="translate(149, 0)"><g data-gra="path-name" fill="#333" transform="scale(1)"><path
        d="M12.71-21.35L6.16-21.35L6.16-12.97L12.58-12.97Q17.55-12.97 17.55-17.29L17.55-17.29Q17.55-21.22 12.71-21.35L12.71-21.35ZM13.76-10.09L6.16-10.09L6.16 0L2.88 0L2.88-23.97L13.76-23.97Q20.57-23.71 20.83-17.29L20.83-17.29Q20.44-10.35 13.76-10.09L13.76-10.09Z"
        transform="translate(-2.8820960698689957, 24.62882096069869)"></path></g></g><g
        transform="translate(170, 0)"><g data-gra="path-name" fill="#333" transform="scale(1)"><path
        d="M2.23-17.55L5.24-17.55L5.24 0L2.23 0L2.23-17.55ZM5.24-23.97L5.24-20.70L2.23-20.70L2.23-23.97L5.24-23.97Z"
        transform="translate(-2.2270742358078603, 24.62882096069869)"></path></g></g><g
        transform="translate(177, 0)"><g data-gra="path-name" fill="#333" transform="scale(1)"><path
        d="M8.65-17.55L8.65-15.07L5.76-15.07L5.76-3.67Q5.76-2.23 7.47-2.23L7.47-2.23L8.65-2.23L8.65 0Q7.86 0 6.81 0L6.81 0Q6.55 0 6.42 0L6.42 0Q2.62 0 2.75-3.41L2.75-3.41L2.75-15.07L0.52-15.07L0.52-17.55L2.75-17.55L2.75-22.40L5.76-22.40L5.76-17.55L8.65-17.55Z"
        transform="translate(-0.5240174672489083, 24.62882096069869)"></path></g></g></g> <!----></g>
</svg>
